<svg width="141" height="36" viewBox="0 0 141 36" fill="none" xmlns="http://www.w3.org/2000/svg">
<path fill-rule="evenodd" clip-rule="evenodd" d="M10.7542 16.3979L6.24573 24.9732C7.56933 25.818 9.09974 26.2827 10.7129 26.2827C12.3674 26.2827 13.8978 25.818 15.2214 25.0154L13.8564 22.3964H8.72748L9.30655 21.2136C9.55473 20.7067 10.0924 20.3687 10.6301 20.3687H12.8224L10.7542 16.3979ZM10.7542 8.54084C5.95619 8.54084 2.06812 12.5116 2.06812 17.4118C2.06812 19.8618 3.01946 22.1007 4.63259 23.7059L9.01701 15.5108C9.34791 14.8772 10.0097 14.4125 10.7542 14.4125C11.4574 14.4125 12.1606 14.835 12.4915 15.5108L16.8759 23.7059C18.4477 22.1007 19.4404 19.8618 19.4404 17.4118C19.4404 12.5116 15.5523 8.54084 10.7542 8.54084ZM10.7542 28.3948C4.79804 28.3948 0 23.4524 0 17.4118C0 11.3288 4.79804 6.42871 10.7542 6.42871C16.7104 6.42871 21.5085 11.3711 21.5085 17.4118C21.5085 23.4947 16.6691 28.3948 10.7542 28.3948ZM27.4829 23.413L32.5404 13.4783C32.8162 12.9292 33.4139 12.5298 34.0576 12.5298C34.2415 12.5298 34.4254 12.5797 34.6093 12.6296C35.0231 12.7794 35.345 13.1289 35.5748 13.5282L40.5863 23.5128H38.6553L36.8162 19.8685H32.2645V19.8185C32.2645 18.6204 33.184 18.0213 33.9197 18.0213H35.8507L34.0116 14.3769L29.4139 23.413H27.4829ZM48.1265 23.3631H46.5633V12.5298H47.5288C48.1265 12.5298 48.6783 12.8792 48.9541 13.4284L53.092 21.5658L57.23 13.4284C57.5058 12.8792 58.0575 12.5298 58.6552 12.5298H59.6208V23.3631H57.9656V15.7249L54.5633 22.4145C54.1495 23.1634 53.3219 23.5628 52.4943 23.2632C52.0805 23.1135 51.7587 22.764 51.5288 22.3646L48.1265 15.7249V23.3631ZM66.1954 12.5298V23.413H67.8966V14.3769H75.1609C75.9426 14.3769 76.5862 15.1258 76.4023 16.0244C76.2644 16.6734 75.7127 17.0728 75.115 17.0728H70.4253C69.5058 17.0728 68.7702 17.8715 68.7702 18.87H75.1609C76.8621 18.87 78.2414 17.3224 78.1494 15.4752C78.0575 13.7779 76.6322 12.5298 75.069 12.5298H66.1954ZM84.1264 23.413V12.5298H93C94.5632 12.5298 95.9885 13.7779 96.0804 15.4752C96.1724 17.3224 94.7931 18.87 93.0919 18.87H92.6782L96.0804 23.413H93.8736L90.4713 18.87H88.3563C87.3908 18.87 86.7012 18.0213 86.7012 17.0728H93.0919C93.8736 17.0728 94.5172 16.274 94.3333 15.4253C94.1954 14.8262 93.6437 14.3769 93.046 14.3769H85.8276V23.413H84.1264ZM103.437 12.5298C102.793 12.5298 102.287 13.0789 102.287 13.7779V23.413H102.839C103.483 23.413 103.988 22.8638 103.988 22.1649V12.5298H103.437ZM110.241 15.6749C110.241 13.9276 111.575 12.5298 113.23 12.5298H122.195V13.1289C122.195 13.8278 121.69 14.3769 121.046 14.3769H113.23C112.494 14.3769 111.942 14.976 111.942 15.7249C111.942 16.4737 112.54 17.0728 113.23 17.0728H119.207C120.862 17.0728 122.195 18.4706 122.195 20.2179C122.195 21.9652 120.862 23.3631 119.207 23.3631H110.241V22.764C110.241 22.0651 110.747 21.5159 111.391 21.5159H119.207C119.942 21.5159 120.494 20.9168 120.494 20.168C120.494 19.4192 119.896 18.8201 119.207 18.8201H113.23C111.575 18.8201 110.241 17.4222 110.241 15.6749ZM130.195 12.5298C129.552 12.5298 129.046 13.0789 129.046 13.7779V14.3769H139.85C140.494 14.3769 141 13.8278 141 13.1289V12.5298H130.195ZM132.034 23.3631C130.379 23.3631 129.046 21.9652 129.046 20.2179V17.0228H141V17.6219C141 18.3208 140.494 18.87 139.85 18.87H130.747V20.2179C130.747 20.9668 131.345 21.5658 132.034 21.5658H139.85C140.494 21.5658 141 22.115 141 22.8139V23.3631H132.034Z" fill="#566577"/>
</svg>
