<svg width="192" height="192" viewBox="0 0 192 192" fill="none" xmlns="http://www.w3.org/2000/svg">
<g filter="url(#filter0_d)">
<circle cx="96" cy="96" r="40" fill="#FF8E02"/>
</g>
<g opacity="0.5" filter="url(#filter1_b)">
<circle cx="96" cy="96" r="64" fill="white" fill-opacity="0.25"/>
<circle cx="96" cy="96" r="63.5" stroke="white"/>
</g>
<g opacity="0.15" filter="url(#filter2_b)">
<circle cx="96" cy="96" r="96" fill="white" fill-opacity="0.1"/>
<circle cx="96" cy="96" r="95.5" stroke="white"/>
</g>
<path d="M89 96V89.2361C89 87.7857 89 87.0605 89.4743 86.7674C89.9485 86.4743 90.5972 86.7986 91.8944 87.4472L105.422 94.2111C106.983 94.9917 107.764 95.382 107.764 96C107.764 96.618 106.983 97.0083 105.422 97.7889L91.8944 104.553C90.5972 105.201 89.9485 105.526 89.4743 105.233C89 104.94 89 104.214 89 102.764V96Z" fill="white"/>
<defs>
<filter id="filter0_d" x="52" y="54" width="92" height="92" filterUnits="userSpaceOnUse" color-interpolation-filters="sRGB">
<feFlood flood-opacity="0" result="BackgroundImageFix"/>
<feColorMatrix in="SourceAlpha" type="matrix" values="0 0 0 0 0 0 0 0 0 0 0 0 0 0 0 0 0 0 127 0" result="hardAlpha"/>
<feOffset dx="2" dy="4"/>
<feGaussianBlur stdDeviation="3"/>
<feComposite in2="hardAlpha" operator="out"/>
<feColorMatrix type="matrix" values="0 0 0 0 0.114375 0 0 0 0 0.269822 0 0 0 0 0.45 0 0 0 0.1 0"/>
<feBlend mode="normal" in2="BackgroundImageFix" result="effect1_dropShadow"/>
<feBlend mode="normal" in="SourceGraphic" in2="effect1_dropShadow" result="shape"/>
</filter>
<filter id="filter1_b" x="24" y="24" width="144" height="144" filterUnits="userSpaceOnUse" color-interpolation-filters="sRGB">
<feFlood flood-opacity="0" result="BackgroundImageFix"/>
<feGaussianBlur in="BackgroundImage" stdDeviation="4"/>
<feComposite in2="SourceAlpha" operator="in" result="effect1_backgroundBlur"/>
<feBlend mode="normal" in="SourceGraphic" in2="effect1_backgroundBlur" result="shape"/>
</filter>
<filter id="filter2_b" x="-4" y="-4" width="200" height="200" filterUnits="userSpaceOnUse" color-interpolation-filters="sRGB">
<feFlood flood-opacity="0" result="BackgroundImageFix"/>
<feGaussianBlur in="BackgroundImage" stdDeviation="2"/>
<feComposite in2="SourceAlpha" operator="in" result="effect1_backgroundBlur"/>
<feBlend mode="normal" in="SourceGraphic" in2="effect1_backgroundBlur" result="shape"/>
</filter>
</defs>
</svg>
