<svg width="32" height="32" viewBox="0 0 32 32" fill="none" xmlns="http://www.w3.org/2000/svg">
<ellipse cx="16" cy="22" rx="16" ry="7" fill="#FF8E02"/>
<g filter="url(#filter0_bi)">
<ellipse cx="16" cy="16" rx="16" ry="7" fill="#F1F1F1" fill-opacity="0.1"/>
<ellipse cx="16" cy="16" rx="16" ry="7" fill="url(#paint0_linear)" fill-opacity="0.45"/>
<path d="M31.9 16C31.9 16.9334 31.468 17.8305 30.6707 18.6552C29.873 19.4804 28.7138 20.2281 27.2736 20.8581C24.3936 22.1182 20.4078 22.9 16 22.9C11.5922 22.9 7.60643 22.1182 4.72637 20.8581C3.2862 20.2281 2.12701 19.4804 1.32925 18.6552C0.531968 17.8305 0.1 16.9334 0.1 16C0.1 15.0666 0.531968 14.1695 1.32925 13.3448C2.12701 12.5196 3.2862 11.7719 4.72637 11.1419C7.60643 9.88184 11.5922 9.1 16 9.1C20.4078 9.1 24.3936 9.88184 27.2736 11.1419C28.7138 11.7719 29.873 12.5196 30.6707 13.3448C31.468 14.1695 31.9 15.0666 31.9 16Z" stroke="url(#paint1_linear)" stroke-opacity="0.1" stroke-width="0.2"/>
</g>
<g filter="url(#filter1_bi)">
<ellipse cx="16" cy="10" rx="16" ry="7" fill="#F1F1F1" fill-opacity="0.1"/>
<ellipse cx="16" cy="10" rx="16" ry="7" fill="url(#paint2_linear)" fill-opacity="0.45"/>
<path d="M31.9 10C31.9 10.9334 31.468 11.8305 30.6707 12.6552C29.873 13.4804 28.7138 14.2281 27.2736 14.8581C24.3936 16.1182 20.4078 16.9 16 16.9C11.5922 16.9 7.60643 16.1182 4.72637 14.8581C3.2862 14.2281 2.12701 13.4804 1.32925 12.6552C0.531968 11.8305 0.1 10.9334 0.1 10C0.1 9.06659 0.531968 8.16948 1.32925 7.34479C2.12701 6.51962 3.2862 5.77195 4.72637 5.14187C7.60643 3.88184 11.5922 3.1 16 3.1C20.4078 3.1 24.3936 3.88184 27.2736 5.14187C28.7138 5.77195 29.873 6.51962 30.6707 7.34479C31.468 8.16948 31.9 9.06659 31.9 10Z" stroke="url(#paint3_linear)" stroke-opacity="0.1" stroke-width="0.2"/>
</g>
<g filter="url(#filter2_bi)">
<path d="M24.5 32C27.8333 32 32 31.5296 32 29.3333C32 27.1371 28.6421 24 24.5 24C20.3579 24 17 27.1371 17 29.3333C17 31.5296 21.1667 32 24.5 32Z" fill="#F1F1F1" fill-opacity="0.5"/>
<path d="M24.5 32C27.8333 32 32 31.5296 32 29.3333C32 27.1371 28.6421 24 24.5 24C20.3579 24 17 27.1371 17 29.3333C17 31.5296 21.1667 32 24.5 32Z" fill="white" fill-opacity="0.8"/>
<path d="M31.9 29.3333C31.9 29.8454 31.6591 30.2599 31.2345 30.5983C30.8072 30.9391 30.1971 31.1992 29.474 31.3937C28.0286 31.7823 26.1642 31.9 24.5 31.9C22.8358 31.9 20.9714 31.7823 19.526 31.3937C18.8029 31.1992 18.1928 30.9391 17.7655 30.5983C17.3409 30.2599 17.1 29.8454 17.1 29.3333C17.1 28.2802 17.9113 26.9727 19.2582 25.9219C20.6001 24.8751 22.4539 24.1 24.5 24.1C26.5461 24.1 28.3999 24.8751 29.7418 25.9219C31.0887 26.9727 31.9 28.2802 31.9 29.3333Z" stroke="url(#paint4_linear)" stroke-width="0.2"/>
</g>
<g filter="url(#filter3_i)">
<circle cx="24.5" cy="19.5" r="3.5" fill="#F1F1F1" fill-opacity="0.5"/>
<circle cx="24.5" cy="19.5" r="3.5" fill="white" fill-opacity="0.8"/>
</g>
<circle cx="24.5" cy="19.5" r="3.4" stroke="url(#paint5_linear)" stroke-width="0.2"/>
<defs>
<filter id="filter0_bi" x="-3" y="6" width="38" height="20" filterUnits="userSpaceOnUse" color-interpolation-filters="sRGB">
<feFlood flood-opacity="0" result="BackgroundImageFix"/>
<feGaussianBlur in="BackgroundImage" stdDeviation="1.5"/>
<feComposite in2="SourceAlpha" operator="in" result="effect1_backgroundBlur"/>
<feBlend mode="normal" in="SourceGraphic" in2="effect1_backgroundBlur" result="shape"/>
<feColorMatrix in="SourceAlpha" type="matrix" values="0 0 0 0 0 0 0 0 0 0 0 0 0 0 0 0 0 0 127 0" result="hardAlpha"/>
<feOffset dy="0.5"/>
<feGaussianBlur stdDeviation="1"/>
<feComposite in2="hardAlpha" operator="arithmetic" k2="-1" k3="1"/>
<feColorMatrix type="matrix" values="0 0 0 0 1 0 0 0 0 1 0 0 0 0 1 0 0 0 0.4 0"/>
<feBlend mode="normal" in2="shape" result="effect2_innerShadow"/>
</filter>
<filter id="filter1_bi" x="-3" y="0" width="38" height="20" filterUnits="userSpaceOnUse" color-interpolation-filters="sRGB">
<feFlood flood-opacity="0" result="BackgroundImageFix"/>
<feGaussianBlur in="BackgroundImage" stdDeviation="1.5"/>
<feComposite in2="SourceAlpha" operator="in" result="effect1_backgroundBlur"/>
<feBlend mode="normal" in="SourceGraphic" in2="effect1_backgroundBlur" result="shape"/>
<feColorMatrix in="SourceAlpha" type="matrix" values="0 0 0 0 0 0 0 0 0 0 0 0 0 0 0 0 0 0 127 0" result="hardAlpha"/>
<feOffset dy="0.5"/>
<feGaussianBlur stdDeviation="1"/>
<feComposite in2="hardAlpha" operator="arithmetic" k2="-1" k3="1"/>
<feColorMatrix type="matrix" values="0 0 0 0 1 0 0 0 0 1 0 0 0 0 1 0 0 0 0.4 0"/>
<feBlend mode="normal" in2="shape" result="effect2_innerShadow"/>
</filter>
<filter id="filter2_bi" x="16" y="23" width="17" height="10" filterUnits="userSpaceOnUse" color-interpolation-filters="sRGB">
<feFlood flood-opacity="0" result="BackgroundImageFix"/>
<feGaussianBlur in="BackgroundImage" stdDeviation="0.5"/>
<feComposite in2="SourceAlpha" operator="in" result="effect1_backgroundBlur"/>
<feBlend mode="normal" in="SourceGraphic" in2="effect1_backgroundBlur" result="shape"/>
<feColorMatrix in="SourceAlpha" type="matrix" values="0 0 0 0 0 0 0 0 0 0 0 0 0 0 0 0 0 0 127 0" result="hardAlpha"/>
<feOffset dy="0.5"/>
<feGaussianBlur stdDeviation="1"/>
<feComposite in2="hardAlpha" operator="arithmetic" k2="-1" k3="1"/>
<feColorMatrix type="matrix" values="0 0 0 0 1 0 0 0 0 1 0 0 0 0 1 0 0 0 0.8 0"/>
<feBlend mode="normal" in2="shape" result="effect2_innerShadow"/>
</filter>
<filter id="filter3_i" x="21" y="16" width="7" height="7.5" filterUnits="userSpaceOnUse" color-interpolation-filters="sRGB">
<feFlood flood-opacity="0" result="BackgroundImageFix"/>
<feBlend mode="normal" in="SourceGraphic" in2="BackgroundImageFix" result="shape"/>
<feColorMatrix in="SourceAlpha" type="matrix" values="0 0 0 0 0 0 0 0 0 0 0 0 0 0 0 0 0 0 127 0" result="hardAlpha"/>
<feOffset dy="0.5"/>
<feGaussianBlur stdDeviation="0.25"/>
<feComposite in2="hardAlpha" operator="arithmetic" k2="-1" k3="1"/>
<feColorMatrix type="matrix" values="0 0 0 0 1 0 0 0 0 1 0 0 0 0 1 0 0 0 0.8 0"/>
<feBlend mode="normal" in2="shape" result="effect1_innerShadow"/>
</filter>
<linearGradient id="paint0_linear" x1="0" y1="9" x2="30.0149" y2="26.4202" gradientUnits="userSpaceOnUse">
<stop stop-color="#FFD057"/>
<stop offset="1" stop-color="#FF8E02"/>
</linearGradient>
<linearGradient id="paint1_linear" x1="1" y1="9.63636" x2="32" y2="9.63636" gradientUnits="userSpaceOnUse">
<stop stop-color="#FFD057"/>
<stop offset="1" stop-color="#FF8E02"/>
</linearGradient>
<linearGradient id="paint2_linear" x1="0" y1="3" x2="30.0149" y2="20.4202" gradientUnits="userSpaceOnUse">
<stop stop-color="#FFD057"/>
<stop offset="1" stop-color="#FF8E02"/>
</linearGradient>
<linearGradient id="paint3_linear" x1="1" y1="3.63636" x2="32" y2="3.63636" gradientUnits="userSpaceOnUse">
<stop stop-color="#FFD057"/>
<stop offset="1" stop-color="#FF8E02"/>
</linearGradient>
<linearGradient id="paint4_linear" x1="19.1429" y1="24" x2="23.9221" y2="34.5905" gradientUnits="userSpaceOnUse">
<stop stop-color="#FFD057"/>
<stop offset="1" stop-color="#FF8E02"/>
</linearGradient>
<linearGradient id="paint5_linear" x1="22" y1="16" x2="27.5" y2="22.5" gradientUnits="userSpaceOnUse">
<stop stop-color="#FF8E02"/>
<stop offset="1" stop-color="#FFD057"/>
</linearGradient>
</defs>
</svg>
