<svg width="32" height="32" viewBox="0 0 32 32" fill="none" xmlns="http://www.w3.org/2000/svg">
<g clip-path="url(#clip0)">
<circle cx="8.9664" cy="8.14355" r="5.75843" transform="rotate(-45 8.9664 8.14355)" fill="#FF8E02"/>
<g filter="url(#filter0_bi)">
<path d="M25.5831 7.74386C25.5831 7.87471 25.6347 8.00004 25.7249 8.09491C26.9536 9.38848 27.92 10.9337 28.5387 12.6453C28.6891 13.0613 29.0752 13.3535 29.5176 13.3535H30.177C30.7293 13.3535 31.177 13.8013 31.177 14.3535V19.8121C31.177 20.3644 30.7293 20.8121 30.177 20.8121H29.1447C28.9235 20.8121 28.7296 20.9578 28.6604 21.1679C28.4836 21.7048 28.2729 22.2263 28.0309 22.73C27.9209 22.9587 27.8926 23.2193 27.9613 23.4636L28.9955 27.1433C29.1912 27.8395 28.9958 28.5872 28.4844 29.0987L26.9973 30.5857C26.2163 31.3667 24.95 31.3667 24.1689 30.5857L22.7781 29.1949C22.4699 28.8867 21.9991 28.8172 21.6015 28.9958C19.9711 29.728 18.1631 30.1353 16.26 30.1353C14.3568 30.1353 12.5489 29.728 10.9184 28.9958C10.5208 28.8172 10.05 28.8867 9.74181 29.1949L8.351 30.5857C7.56995 31.3667 6.30362 31.3667 5.52257 30.5857L4.03556 29.0987C3.52414 28.5872 3.32868 27.8395 3.52439 27.1433L4.55865 23.4636C4.62732 23.2193 4.59898 22.9587 4.48904 22.73C3.66768 21.021 3.20752 19.1057 3.20752 17.0828C3.20752 9.87415 9.0513 4.03037 16.26 4.03037C17.2973 4.03037 18.3064 4.15139 19.2739 4.38007C19.3654 4.40171 19.4613 4.39838 19.5507 4.36897L24.2707 2.81664C24.9175 2.60392 25.5831 3.08571 25.5831 3.76658V7.74386Z" fill="#F1F1F1" fill-opacity="0.1"/>
<path d="M25.5831 7.74386C25.5831 7.87471 25.6347 8.00004 25.7249 8.09491C26.9536 9.38848 27.92 10.9337 28.5387 12.6453C28.6891 13.0613 29.0752 13.3535 29.5176 13.3535H30.177C30.7293 13.3535 31.177 13.8013 31.177 14.3535V19.8121C31.177 20.3644 30.7293 20.8121 30.177 20.8121H29.1447C28.9235 20.8121 28.7296 20.9578 28.6604 21.1679C28.4836 21.7048 28.2729 22.2263 28.0309 22.73C27.9209 22.9587 27.8926 23.2193 27.9613 23.4636L28.9955 27.1433C29.1912 27.8395 28.9958 28.5872 28.4844 29.0987L26.9973 30.5857C26.2163 31.3667 24.95 31.3667 24.1689 30.5857L22.7781 29.1949C22.4699 28.8867 21.9991 28.8172 21.6015 28.9958C19.9711 29.728 18.1631 30.1353 16.26 30.1353C14.3568 30.1353 12.5489 29.728 10.9184 28.9958C10.5208 28.8172 10.05 28.8867 9.74181 29.1949L8.351 30.5857C7.56995 31.3667 6.30362 31.3667 5.52257 30.5857L4.03556 29.0987C3.52414 28.5872 3.32868 27.8395 3.52439 27.1433L4.55865 23.4636C4.62732 23.2193 4.59898 22.9587 4.48904 22.73C3.66768 21.021 3.20752 19.1057 3.20752 17.0828C3.20752 9.87415 9.0513 4.03037 16.26 4.03037C17.2973 4.03037 18.3064 4.15139 19.2739 4.38007C19.3654 4.40171 19.4613 4.39838 19.5507 4.36897L24.2707 2.81664C24.9175 2.60392 25.5831 3.08571 25.5831 3.76658V7.74386Z" fill="url(#paint0_linear)" fill-opacity="0.45"/>
<path d="M25.4831 7.74386C25.4831 7.90116 25.5452 8.05093 25.6524 8.16379C26.8718 9.44752 27.8307 10.9809 28.4446 12.6793C28.6082 13.1318 29.0298 13.4535 29.5176 13.4535H30.177C30.6741 13.4535 31.077 13.8565 31.077 14.3535V19.8121C31.077 20.3091 30.6741 20.7121 30.177 20.7121H29.1447C28.8787 20.7121 28.6476 20.8871 28.5654 21.1366C28.39 21.6694 28.1809 22.1869 27.9408 22.6866C27.821 22.9359 27.7893 23.2214 27.865 23.4907L28.8993 27.1703C29.0852 27.8318 28.8995 28.5421 28.4136 29.028L26.9266 30.515C26.1846 31.257 24.9816 31.257 24.2396 30.515L22.8488 29.1241C22.509 28.7843 21.993 28.7103 21.5605 28.9045C19.9427 29.6311 18.1487 30.0352 16.26 30.0352C14.3712 30.0352 12.5772 29.6311 10.9594 28.9045C10.5269 28.7103 10.0109 28.7843 9.6711 29.1241L8.28029 30.515C7.53829 31.257 6.33528 31.257 5.59328 30.515L4.10627 29.028C3.62042 28.5421 3.43474 27.8318 3.62066 27.1703L4.65492 23.4907C4.7306 23.2214 4.69895 22.9359 4.57917 22.6866C3.76417 20.9909 3.30752 19.0903 3.30752 17.0828C3.30752 9.92938 9.10652 4.13037 16.26 4.13037C17.2895 4.13037 18.2909 4.25047 19.2508 4.47738C19.3598 4.50314 19.4744 4.49931 19.5819 4.46397L24.302 2.91163C24.8841 2.72019 25.4831 3.1538 25.4831 3.76658V7.74386Z" stroke="url(#paint1_linear)" stroke-opacity="0.1" stroke-width="0.2"/>
</g>
<g filter="url(#filter1_i)">
<circle cx="22.13" cy="14.7247" r="2.4679" fill="white" fill-opacity="0.8"/>
</g>
</g>
<defs>
<filter id="filter0_bi" x="0.20752" y="-0.234131" width="33.9695" height="34.4056" filterUnits="userSpaceOnUse" color-interpolation-filters="sRGB">
<feFlood flood-opacity="0" result="BackgroundImageFix"/>
<feGaussianBlur in="BackgroundImage" stdDeviation="1.5"/>
<feComposite in2="SourceAlpha" operator="in" result="effect1_backgroundBlur"/>
<feBlend mode="normal" in="SourceGraphic" in2="effect1_backgroundBlur" result="shape"/>
<feColorMatrix in="SourceAlpha" type="matrix" values="0 0 0 0 0 0 0 0 0 0 0 0 0 0 0 0 0 0 127 0" result="hardAlpha"/>
<feOffset dy="0.5"/>
<feGaussianBlur stdDeviation="1"/>
<feComposite in2="hardAlpha" operator="arithmetic" k2="-1" k3="1"/>
<feColorMatrix type="matrix" values="0 0 0 0 1 0 0 0 0 1 0 0 0 0 1 0 0 0 0.4 0"/>
<feBlend mode="normal" in2="shape" result="effect2_innerShadow"/>
</filter>
<filter id="filter1_i" x="19.6621" y="12.2568" width="4.9358" height="5.4358" filterUnits="userSpaceOnUse" color-interpolation-filters="sRGB">
<feFlood flood-opacity="0" result="BackgroundImageFix"/>
<feBlend mode="normal" in="SourceGraphic" in2="BackgroundImageFix" result="shape"/>
<feColorMatrix in="SourceAlpha" type="matrix" values="0 0 0 0 0 0 0 0 0 0 0 0 0 0 0 0 0 0 127 0" result="hardAlpha"/>
<feOffset dy="0.5"/>
<feGaussianBlur stdDeviation="0.25"/>
<feComposite in2="hardAlpha" operator="arithmetic" k2="-1" k3="1"/>
<feColorMatrix type="matrix" values="0 0 0 0 1 0 0 0 0 1 0 0 0 0 1 0 0 0 0.4 0"/>
<feBlend mode="normal" in2="shape" result="effect1_innerShadow"/>
</filter>
<linearGradient id="paint0_linear" x1="3.20752" y1="2.38501" x2="36.3717" y2="10.3382" gradientUnits="userSpaceOnUse">
<stop stop-color="#FFD057"/>
<stop offset="1" stop-color="#FF8E02"/>
</linearGradient>
<linearGradient id="paint1_linear" x1="4.08157" y1="3.73114" x2="31.177" y2="3.73114" gradientUnits="userSpaceOnUse">
<stop stop-color="#FFD057"/>
<stop offset="1" stop-color="#FF8E02"/>
</linearGradient>
<clipPath id="clip0">
<rect width="32" height="32" fill="white"/>
</clipPath>
</defs>
</svg>
